<?xml version="1.0" encoding="UTF-8" standalone="no"?>
<!-- Created with Inkscape (http://www.inkscape.org/) -->

<svg
   xmlns:dc="http://purl.org/dc/elements/1.1/"
   xmlns:cc="http://creativecommons.org/ns#"
   xmlns:rdf="http://www.w3.org/1999/02/22-rdf-syntax-ns#"
   xmlns:svg="http://www.w3.org/2000/svg"
   xmlns="http://www.w3.org/2000/svg"
   xmlns:sodipodi="http://sodipodi.sourceforge.net/DTD/sodipodi-0.dtd"
   xmlns:inkscape="http://www.inkscape.org/namespaces/inkscape"
   version="1.1"
   width="518"
   height="72"
   viewBox="-0.3 -73.136 518 72"
   id="Ebene_1"
   xml:space="preserve"
   style="overflow:visible"
   inkscape:version="0.48.1 "
   sodipodi:docname="logo.svg"><sodipodi:namedview
   pagecolor="#ffffff"
   bordercolor="#666666"
   borderopacity="1"
   objecttolerance="10"
   gridtolerance="10"
   guidetolerance="10"
   inkscape:pageopacity="0"
   inkscape:pageshadow="2"
   inkscape:window-width="1920"
   inkscape:window-height="1018"
   id="namedview14271"
   showgrid="false"
   inkscape:zoom="7.1852238"
   inkscape:cx="72.177029"
   inkscape:cy="37.486842"
   inkscape:window-x="-8"
   inkscape:window-y="-8"
   inkscape:window-maximized="1"
   inkscape:current-layer="Ebene_1" /><metadata
   id="metadata3065"><rdf:RDF><cc:Work
       rdf:about=""><dc:format>image/svg+xml</dc:format><dc:type
         rdf:resource="http://purl.org/dc/dcmitype/StillImage" /><dc:title /></cc:Work></rdf:RDF></metadata><defs
   id="defs3063">
	
		
	
		
	
		
	
		
	
		
	
		
	
		

		
		
		
	</defs>

<rect
   width="33.959999"
   height="33.960999"
   x="67.917"
   y="-37.27"
   id="rect3025"
   style="fill:#59c2e6" /><rect
   width="33.959999"
   height="33.959999"
   x="0"
   y="-37.271"
   id="rect3027"
   style="fill:#59c2e6" /><rect
   width="33.959999"
   height="33.962002"
   x="33.958"
   y="-71.228996"
   id="rect3029"
   style="fill:#59c2e6;fill-opacity:1" /><path
   d="m 166.061,-51.432 c -0.571,-15.155 -11.163,-21.817 -25.099,-21.817 -12.398,0 -24.716,6.179 -24.716,20.18 0,12.646 10.977,15.836 21.854,18.248 10.882,2.41 21.759,4.057 21.759,13.517 0,9.946 -9.068,12.553 -17.28,12.553 -10.296,0 -19.843,-5.021 -19.843,-16.605 h -8.584 c 0,16.797 12.874,24.329 28.143,24.329 12.411,0 26.625,-5.892 26.625,-20.567 0,-13.514 -10.877,-17.377 -21.757,-19.892 -10.971,-2.508 -21.847,-3.765 -21.847,-12.255 0,-8.98 7.641,-11.783 15.262,-11.783 9.356,0 15.845,4.25 16.888,14.096 h 8.595 v -0.004 z"
   id="path3031"
   style="fill:#f9f9f7" /><path
   d="m 237.709,-50.848 c -2.097,-14.674 -13.83,-22.401 -28.041,-22.401 -20.987,0 -32.238,16.323 -32.238,36.307 0,20.084 10.306,35.92 31.472,35.92 17.172,0 27.757,-10.426 29.475,-27.615 h -9.062 c -0.857,11.396 -7.724,19.896 -19.647,19.896 -16.313,0 -23.181,-13.132 -23.181,-28.869 0,-14.392 6.868,-27.909 23.082,-27.909 9.445,0 17.172,4.927 19.08,14.675 h 9.06 v -0.004 z"
   id="path3033"
   style="fill:#f9f9f7" /><polygon
   points="295.454,-34.435 295.454,-3.354 304.521,-3.354 304.521,-71.229 295.454,-71.229 295.454,-42.047 259.571,-42.047 259.571,-71.229 250.507,-71.229 250.507,-3.354 259.571,-3.354 259.571,-34.435 "
   id="polygon3035"
   style="fill:#f9f9f7" /><polygon
   points="329.455,-10.957 329.455,-34.443 364.844,-34.443 364.844,-42.044 329.455,-42.044 329.455,-63.626 367.422,-63.626 367.422,-71.229 320.395,-71.229 320.395,-3.354 367.708,-3.354 367.708,-10.957 "
   id="polygon3037"
   style="fill:#f9f9f7" /><polygon
   points="388.485,-59.84 409.756,-3.354 417.489,-3.354 438.764,-59.84 438.958,-59.84 438.958,-3.354 447.545,-3.354 447.545,-71.25 435.143,-71.25 413.565,-14.189 392.104,-71.25 379.698,-71.25 379.698,-3.354 388.29,-3.354 388.29,-59.84 "
   id="polygon3039"
   style="fill:#f9f9f7" /><path
   d="m 455.393,-3.346 h 9.332 l 7.613,-20.44 h 28.738 l 7.422,20.44 h 9.996 l -26.549,-67.883 h -9.996 l -26.556,67.883 z m 31.316,-59.705 h 0.184 l 11.334,31.659 h -23.029 l 11.511,-31.659 z"
   id="path3041"
   style="fill:#f9f9f7" />
</svg>